<svg xmlns="http://www.w3.org/2000/svg" xmlns:xlink="http://www.w3.org/1999/xlink" width="15" height="15" viewBox="0 0 15 15">
  <defs>
    <clipPath id="clip-path">
      <rect id="Rectangle_44" data-name="Rectangle 44" width="15" height="15" transform="translate(208 2056)" fill="#a9aeb3"/>
    </clipPath>
  </defs>
  <g id="pata-mark" transform="translate(-208 -2056)" clip-path="url(#clip-path)">
    <g id="pata" transform="translate(208 2070.719)">
      <path id="Path_12" data-name="Path 12" d="M9.9-14.418a2.651,2.651,0,0,0-1.836,1.947,4.12,4.12,0,0,0-.166,1.53A2.269,2.269,0,0,0,9.009-9.086,1.251,1.251,0,0,0,10.016-9a2.632,2.632,0,0,0,.727-.427,3.27,3.27,0,0,0,1.042-1.911,3.171,3.171,0,0,0,.059-.7,2.986,2.986,0,0,0-.257-1.348,1.78,1.78,0,0,0-1.2-1.033A1.448,1.448,0,0,0,9.9-14.418Z"/>
      <path id="Path_13" data-name="Path 13" d="M4.477-14.364a1.728,1.728,0,0,0-1.177.983,2.452,2.452,0,0,0-.243.993,4.3,4.3,0,0,0,.014.673A3.362,3.362,0,0,0,4.439-9.253a2.775,2.775,0,0,0,.567.28.775.775,0,0,0,.282.05,1.205,1.205,0,0,0,.455-.059,1.476,1.476,0,0,0,.615-.379A2.452,2.452,0,0,0,7-10.91a4.141,4.141,0,0,0-.06-.967,2.947,2.947,0,0,0-1.9-2.451A1.28,1.28,0,0,0,4.477-14.364Z"/>
      <path id="Path_14" data-name="Path 14" d="M13.366-10.087a2.654,2.654,0,0,0-1.892,1.5,3.55,3.55,0,0,0-.37,1.18,2.242,2.242,0,0,0-.032.438,1.926,1.926,0,0,0,.064.561,1.731,1.731,0,0,0,.847,1.15,1.153,1.153,0,0,0,.634.123,2.245,2.245,0,0,0,1.444-.73,3.451,3.451,0,0,0,.9-1.866A4.448,4.448,0,0,0,15-8.395a1.84,1.84,0,0,0-.98-1.6A1.2,1.2,0,0,0,13.366-10.087Z"/>
      <path id="Path_15" data-name="Path 15" d="M1.232-9.78a1.4,1.4,0,0,0-1.1.913,2.943,2.943,0,0,0-.123.621A3.377,3.377,0,0,0,.736-5.919a2.792,2.792,0,0,0,1.452.974A1.232,1.232,0,0,0,3.445-5.3a1.907,1.907,0,0,0,.482-1.408A2.729,2.729,0,0,0,3.873-7.3,3.394,3.394,0,0,0,2.7-9.275a2.7,2.7,0,0,0-.873-.481A1.576,1.576,0,0,0,1.232-9.78Z"/>
      <path id="Path_16" data-name="Path 16" d="M7.314-6.921a4.135,4.135,0,0,0-1.208.329,4.248,4.248,0,0,0-1.572,1.2A8.373,8.373,0,0,0,2.919-2.163C2.9-2.1,2.88-2,2.865-1.946a1.5,1.5,0,0,0,.036.891A1.559,1.559,0,0,0,3.86-.1a2.23,2.23,0,0,0,1.092,0,6.989,6.989,0,0,0,1.1-.35A5.165,5.165,0,0,1,7.7-.88,2.148,2.148,0,0,1,8.17-.892a4.411,4.411,0,0,1,1.477.406c.6.245.935.377,1.02.4a1.618,1.618,0,0,0,1.969-.692,1.965,1.965,0,0,0,.034-1.169,6.262,6.262,0,0,0-.7-1.565,9.995,9.995,0,0,0-2.1-2.575,3.373,3.373,0,0,0-1.841-.836A4.033,4.033,0,0,0,7.314-6.921Z"/>
    </g>
  </g>
</svg>
